<svg width="20" height="20" viewBox="0 0 20 20" fill="none" xmlns="http://www.w3.org/2000/svg">
<path d="M9.99962 5.27229V17.3133M18 14.3033V4.61764C18 3.64781 17.2226 2.9425 16.2696 3.01807H16.2194C14.5392 3.15661 11.9937 4.02569 10.5643 4.91995L10.4263 5.00813C10.2006 5.14667 9.8119 5.14667 9.57365 5.00813L9.37303 4.88216C7.9561 3.98791 5.41066 3.14401 3.73041 3.00546C2.77743 2.92989 2 3.64784 2 4.60507V14.3033C2 15.0716 2.62694 15.8021 3.39183 15.8903L3.61753 15.9281C5.34794 16.1548 8.03133 17.0491 9.56112 17.8929L9.59873 17.9055C9.8119 18.0315 10.163 18.0315 10.3636 17.9055C11.8934 17.0491 14.5893 16.1674 16.3323 15.9281L16.5956 15.8903C17.373 15.8021 18 15.0842 18 14.3033Z" stroke="#FF6601" stroke-width="1.8" stroke-linecap="round" stroke-linejoin="round"/>
</svg>
