<svg width="20" height="20" viewBox="0 0 20 20" fill="none" xmlns="http://www.w3.org/2000/svg">
<g clip-path="url(#clip0_2735_831)">
<path d="M19.9633 6.49129C19.8573 5.80902 19.5189 5.21773 19.0425 4.8241C18.5681 4.42824 17.973 4.2268 17.3744 4.22773C17.0982 4.22711 16.8205 4.27113 16.5504 4.35609C16.0508 2.6282 13.444 1.76367 9.07977 1.76367C4.0698 1.76367 1.37477 2.90246 1.52656 5.18039C1.60109 6.29875 1.98738 8.49109 3.025 10.5043C2.5793 10.665 2.15852 10.8661 1.77906 11.1096C1.3273 11.4008 0.930781 11.7498 0.622071 12.1604C0.313828 12.5703 0.0941798 13.047 0.0214064 13.568C0.00718765 13.6686 1.49482e-07 13.7701 1.49482e-07 13.8713C-0.000117038 14.1867 0.068672 14.4992 0.193008 14.7933C0.41168 15.3089 0.791133 15.7699 1.29426 16.1786C2.05109 16.7912 3.09586 17.2969 4.41856 17.6596C5.74152 18.0216 7.34422 18.2362 9.21699 18.2365C12.0578 18.2349 14.2836 17.7426 15.8534 16.9843C16.6379 16.6035 17.2623 16.1552 17.7112 15.6412C17.9353 15.3833 18.1154 15.1081 18.2412 14.8146C18.367 14.5216 18.4366 14.209 18.4366 13.8939C18.4366 13.8246 18.4334 13.7557 18.4263 13.6867C18.3753 13.1526 18.1665 12.6593 17.8632 12.236C17.4066 11.5997 16.7445 11.1033 15.9815 10.7413C15.7242 10.6199 15.4541 10.5155 15.1757 10.4261C15.2223 10.3342 15.2683 10.2419 15.3123 10.1496C15.7044 10.3016 16.1079 10.376 16.4994 10.375C16.9795 10.375 17.4393 10.2687 17.853 10.0868C18.474 9.81285 18.997 9.37578 19.3782 8.83817C19.7571 8.30051 19.9991 7.65148 20.0001 6.95293C20 6.80031 19.9882 6.64578 19.9633 6.49129ZM9.07977 3.35742C12.0568 3.35742 14.4698 3.96977 14.4698 4.72418C14.4698 5.47891 12.0568 6.09063 9.07977 6.09063C6.10332 6.09063 3.69035 5.47891 3.69035 4.72418C3.69031 3.96977 6.10328 3.35742 9.07977 3.35742ZM15.9527 12.2877C16.2924 12.5128 16.5651 12.7692 16.7515 13.03C16.9386 13.2934 17.0405 13.5545 17.0663 13.8189C17.0689 13.8435 17.0702 13.8688 17.0702 13.8939C17.0702 14.0095 17.0459 14.1344 16.9849 14.2768C16.8799 14.5254 16.6532 14.8255 16.2774 15.126C15.7165 15.5784 14.8305 16.0234 13.6451 16.3443C12.4597 16.6671 10.9761 16.8704 9.21699 16.8701C6.52387 16.8717 4.48301 16.3929 3.16988 15.7492C2.51316 15.4293 2.04148 15.0686 1.75477 14.7334C1.61063 14.5661 1.51262 14.4064 1.45199 14.2625C1.39113 14.1179 1.36672 13.9898 1.36621 13.8714C1.36621 13.833 1.3691 13.7957 1.37422 13.7584C1.41141 13.4966 1.52219 13.2383 1.71469 12.9809C2.00121 12.5969 2.47723 12.2298 3.06883 11.9584C3.28098 11.8607 3.51066 11.7796 3.7466 11.7081C4.0007 12.0711 4.2791 12.42 4.58977 12.7421C4.90406 13.0684 5.19844 13.3293 5.48609 13.5432C5.18949 13.7168 5.01852 13.9119 5.01852 14.1184C5.01852 14.8416 7.05762 15.428 9.5732 15.428C12.089 15.428 14.1278 14.8416 14.1278 14.1184C14.1278 13.7918 13.7095 13.4943 13.0225 13.2648C13.1997 13.1109 13.3814 12.9379 13.5704 12.7421C13.9002 12.3999 14.1945 12.0283 14.4605 11.6404C15.0205 11.7865 15.5364 12.0109 15.9527 12.2877ZM18.0497 7.50969C17.922 7.79289 17.6918 8.0668 17.4121 8.25645C17.1318 8.44797 16.8132 8.55363 16.4993 8.55336C16.3295 8.55238 16.157 8.52016 15.977 8.45086C16.1826 7.80566 16.3336 7.18625 16.438 6.63524C16.5657 6.43406 16.7087 6.2968 16.853 6.20582C17.028 6.09602 17.208 6.04973 17.3744 6.04941C17.5707 6.05004 17.7431 6.11293 17.8759 6.2234C18.0068 6.33641 18.116 6.49348 18.1645 6.77891C18.1735 6.83637 18.1779 6.89445 18.1779 6.95293C18.178 7.13141 18.1359 7.32102 18.0497 7.50969Z" fill="#32D175"/>
</g>
<defs>
<clipPath id="clip0_2735_831">
<rect width="20" height="20" fill="white"/>
</clipPath>
</defs>
</svg>
