<svg width="800" height="800" viewBox="0 0 800 800" fill="none" xmlns="http://www.w3.org/2000/svg">
<path fill-rule="evenodd" clip-rule="evenodd" d="M733.333 400C733.333 584.093 584.093 733.333 399.999 733.333C215.904 733.333 66.666 584.093 66.666 400C66.666 215.905 215.904 66.6665 399.999 66.6665C584.093 66.6665 733.333 215.905 733.333 400ZM534.343 298.989C544.106 308.752 544.106 324.581 534.343 334.343L367.676 501.01C357.913 510.773 342.086 510.773 332.322 501.01L265.655 434.343C255.892 424.58 255.892 408.753 265.655 398.99C275.418 389.226 291.247 389.226 301.01 398.99L349.999 447.976L424.493 373.483L498.989 298.989C508.753 289.226 524.579 289.226 534.343 298.989Z" fill="#32D175"/>
</svg>
