<svg width="20" height="20" viewBox="0 0 20 20" fill="none" xmlns="http://www.w3.org/2000/svg">
<g clip-path="url(#clip0_2721_840)">
<path fill-rule="evenodd" clip-rule="evenodd" d="M20 2V7C20 7.552 19.552 8 19 8C18.448 8 18 7.552 18 7V3C18 2.448 17.552 2 17 2H13C12.448 2 12 1.552 12 1C12 0.448 12.448 0 13 0H18C19.105 0 20 0.895 20 2ZM18 20H13C12.448 20 12 19.552 12 19C12 18.448 12.448 18 13 18H17C17.552 18 18 17.552 18 17V13C18 12.448 18.448 12 19 12C19.552 12 20 12.448 20 13V18C20 19.105 19.105 20 18 20ZM0 18V13C0 12.448 0.448 12 1 12C1.552 12 2 12.448 2 13V17C2 17.552 2.448 18 3 18H7C7.552 18 8 18.448 8 19C8 19.552 7.552 20 7 20H2C0.895 20 0 19.105 0 18ZM0 7V2C0 0.895 0.895 0 2 0H7C7.552 0 8 0.448 8 1C8 1.552 7.552 2 7 2H3C2.448 2 2 2.448 2 3V7C2 7.552 1.552 8 1 8C0.448 8 0 7.552 0 7ZM0.00999451 10L0 10.0098V9.99023L0.00999451 10ZM10 12C8.897 12 8 11.103 8 10C8 8.897 8.897 8 10 8C11.103 8 12 8.897 12 10C12 11.103 11.103 12 10 12ZM13.859 11H15C15.552 11 16 10.552 16 10C16 9.448 15.552 9 15 9H13.859C13.496 7.599 12.401 6.50411 11 6.14111V5C11 4.448 10.552 4 10 4C9.448 4 9 4.448 9 5V6.14111C7.599 6.50411 6.50401 7.599 6.14101 9H5C4.448 9 4 9.448 4 10C4 10.552 4.448 11 5 11H6.14101C6.50401 12.401 7.599 13.4959 9 13.8589V15C9 15.552 9.448 16 10 16C10.552 16 11 15.552 11 15V13.8589C12.401 13.4959 13.496 12.401 13.859 11Z" fill="#FF6601"/>
</g>
<defs>
<clipPath id="clip0_2721_840">
<rect width="20" height="20" fill="white"/>
</clipPath>
</defs>
</svg>
