<svg width="26" height="26" viewBox="0 0 26 26" fill="none" xmlns="http://www.w3.org/2000/svg">
<path d="M13.0003 23.8332C18.9834 23.8332 23.8337 18.9829 23.8337 12.9998C23.8337 7.01675 18.9834 2.1665 13.0003 2.1665C7.01724 2.1665 2.16699 7.01675 2.16699 12.9998C2.16699 14.7328 2.57391 16.3707 3.29741 17.8234C3.48968 18.2094 3.55367 18.6506 3.44221 19.0672L2.79696 21.4788C2.51685 22.5256 3.47459 23.4833 4.52145 23.2032L6.933 22.558C7.34958 22.4465 7.7908 22.5105 8.17682 22.7027C9.62939 23.4263 11.2673 23.8332 13.0003 23.8332Z" stroke="black" stroke-width="2"/>
<path d="M8.66699 11.375H17.3337" stroke="black" stroke-width="2" stroke-linecap="round"/>
<path d="M8.66699 15.1665H14.6253" stroke="black" stroke-width="2" stroke-linecap="round"/>
</svg>
