<svg width="20" height="20" viewBox="0 0 20 20" fill="none" xmlns="http://www.w3.org/2000/svg">
<path d="M10.833 16.6661C10.7539 16.6668 10.6652 16.6668 10.5638 16.6668H5.9971C5.0655 16.6668 4.59901 16.6668 4.24284 16.4853C3.92923 16.3256 3.67445 16.0703 3.51467 15.7567C3.33301 15.4002 3.33301 14.9337 3.33301 14.0003V6.00033C3.33301 5.0669 3.33301 4.59985 3.51467 4.24333C3.67445 3.92972 3.92923 3.67494 4.24284 3.51515C4.59936 3.3335 5.06642 3.3335 5.99984 3.3335H13.9998C14.9333 3.3335 15.3993 3.3335 15.7558 3.51515C16.0694 3.67494 16.3251 3.92972 16.4848 4.24333C16.6663 4.5995 16.6663 5.06599 16.6663 5.99759V10.5624C16.6663 10.6646 16.6663 10.7539 16.6656 10.8335M10.833 16.6661C11.0711 16.664 11.2216 16.6553 11.3653 16.6208C11.5354 16.58 11.6979 16.5124 11.847 16.421C12.0152 16.318 12.1593 16.1742 12.4476 15.886L15.8855 12.4481C16.1738 12.1598 16.3171 12.0157 16.4202 11.8475C16.5115 11.6984 16.5791 11.5355 16.6199 11.3655C16.6544 11.2217 16.6633 11.0714 16.6656 10.8335M10.833 16.6661V12.1669C10.833 11.7002 10.833 11.4667 10.9238 11.2884C11.0038 11.1316 11.1311 11.0042 11.2879 10.9243C11.4662 10.8335 11.6993 10.8335 12.166 10.8335H16.6656" stroke="black" stroke-linecap="round" stroke-linejoin="round"/>
</svg>
