<svg width="20" height="20" viewBox="0 0 20 20" fill="none" xmlns="http://www.w3.org/2000/svg">
<path d="M11.8863 13.2809L10.4962 11.9025C9.82542 11.2373 9.49001 10.9047 9.10517 10.7831C8.76667 10.6762 8.40284 10.6801 8.06674 10.7943C7.68457 10.9243 7.35646 11.264 6.70024 11.9435L3.36975 15.2331M11.8863 13.2809L12.1708 12.9988C12.8423 12.3328 13.1781 11.9998 13.5634 11.8783C13.9023 11.7713 14.2663 11.7756 14.6027 11.8903C14.985 12.0206 15.3131 12.3613 15.9692 13.0425L16.6663 13.7442M11.8863 13.2809L15.2288 16.6301M3.36975 15.2331C3.39561 15.4431 3.43964 15.6091 3.51467 15.7563C3.67445 16.0699 3.92942 16.3249 4.24302 16.4847C4.59954 16.6663 5.06625 16.6663 5.99967 16.6663H13.9997C14.5449 16.6663 14.931 16.6663 15.2288 16.6301M3.36975 15.2331C3.33301 14.9348 3.33301 14.5476 3.33301 13.9997V5.99967C3.33301 5.06626 3.33301 4.59954 3.51467 4.24302C3.67445 3.92942 3.92942 3.67445 4.24302 3.51467C4.59954 3.33301 5.06625 3.33301 5.99967 3.33301H13.9997C14.9331 3.33301 15.3998 3.33301 15.7563 3.51467C16.0699 3.67445 16.3249 3.92942 16.4847 4.24302C16.6663 4.59954 16.6663 5.06626 16.6663 5.99967V13.7442M16.6663 13.7442V13.9997C16.6663 14.9331 16.6663 15.3998 16.4847 15.7563C16.3249 16.0699 16.0699 16.3249 15.7563 16.4847C15.6081 16.5603 15.4408 16.6043 15.2288 16.6301M14.1663 7.49958C14.1663 8.42009 13.4202 9.16626 12.4997 9.16626C11.5792 9.16626 10.833 8.42009 10.833 7.49958C10.833 6.57911 11.5792 5.83292 12.4997 5.83292C13.4202 5.83292 14.1663 6.57911 14.1663 7.49958Z" stroke="#000000" stroke-linecap="round" stroke-linejoin="round"/>
</svg>
