<svg width="296" height="127" viewBox="0 0 296 127" fill="none" xmlns="http://www.w3.org/2000/svg">
<g clip-path="url(#clip0_2260_1852)">
<path d="M273 23.6668C273.442 23.6668 273.866 23.4912 274.178 23.1787C274.491 22.8661 274.666 22.4422 274.666 22.0002C274.666 21.5581 274.491 21.1342 274.178 20.8217C273.866 20.5091 273.442 20.3335 273 20.3335C272.558 20.3335 272.134 20.5091 271.821 20.8217C271.509 21.1342 271.333 21.5581 271.333 22.0002C271.333 22.4422 271.509 22.8661 271.821 23.1787C272.134 23.4912 272.558 23.6668 273 23.6668ZM268 23.6668C268.442 23.6668 268.866 23.4912 269.178 23.1787C269.491 22.8661 269.666 22.4422 269.666 22.0002C269.666 21.5581 269.491 21.1342 269.178 20.8217C268.866 20.5091 268.442 20.3335 268 20.3335C267.558 20.3335 267.134 20.5091 266.821 20.8217C266.509 21.1342 266.333 21.5581 266.333 22.0002C266.333 22.4422 266.509 22.8661 266.821 23.1787C267.134 23.4912 267.558 23.6668 268 23.6668ZM278 23.6668C278.442 23.6668 278.866 23.4912 279.178 23.1787C279.491 22.8661 279.666 22.4422 279.666 22.0002C279.666 21.5581 279.491 21.1342 279.178 20.8217C278.866 20.5091 278.442 20.3335 278 20.3335C277.558 20.3335 277.134 20.5091 276.821 20.8217C276.509 21.1342 276.333 21.5581 276.333 22.0002C276.333 22.4422 276.509 22.8661 276.821 23.1787C277.134 23.4912 277.558 23.6668 278 23.6668Z" fill="black"/>
<path d="M-0.5 114.5C60.2996 93.6794 85.2444 66.0993 104.5 -0.5" stroke="#EE2400"/>
<path d="M97 148.5C149.241 106.345 169.006 72.994 178.5 -0.5" stroke="#EE2400"/>
<path d="M208 148.5C247.272 108.087 259.405 73.1969 259.5 -0.5" stroke="#EE2400"/>
<g filter="url(#filter0_f_2260_1852)">
<circle cx="284" cy="145" r="50" fill="#FBD6D0"/>
</g>
<g filter="url(#filter1_f_2260_1852)">
<circle cx="138" cy="-28" r="50" fill="#FBD6D0"/>
</g>
<g filter="url(#filter2_f_2260_1852)">
<ellipse cx="-22.5" cy="140" rx="74.5" ry="50" fill="#FBD6D0"/>
</g>
</g>
<defs>
<filter id="filter0_f_2260_1852" x="74" y="-65" width="420" height="420" filterUnits="userSpaceOnUse" color-interpolation-filters="sRGB">
<feFlood flood-opacity="0" result="BackgroundImageFix"/>
<feBlend mode="normal" in="SourceGraphic" in2="BackgroundImageFix" result="shape"/>
<feGaussianBlur stdDeviation="80" result="effect1_foregroundBlur_2260_1852"/>
</filter>
<filter id="filter1_f_2260_1852" x="-72" y="-238" width="420" height="420" filterUnits="userSpaceOnUse" color-interpolation-filters="sRGB">
<feFlood flood-opacity="0" result="BackgroundImageFix"/>
<feBlend mode="normal" in="SourceGraphic" in2="BackgroundImageFix" result="shape"/>
<feGaussianBlur stdDeviation="80" result="effect1_foregroundBlur_2260_1852"/>
</filter>
<filter id="filter2_f_2260_1852" x="-257" y="-70" width="469" height="420" filterUnits="userSpaceOnUse" color-interpolation-filters="sRGB">
<feFlood flood-opacity="0" result="BackgroundImageFix"/>
<feBlend mode="normal" in="SourceGraphic" in2="BackgroundImageFix" result="shape"/>
<feGaussianBlur stdDeviation="80" result="effect1_foregroundBlur_2260_1852"/>
</filter>
<clipPath id="clip0_2260_1852">
<rect width="296" height="127" rx="7.5" fill="white"/>
</clipPath>
</defs>
</svg>
