<svg width="18" height="18" viewBox="0 0 18 18" fill="none" xmlns="http://www.w3.org/2000/svg">
<path d="M2.25 6.75H15.75M12.75 9.75105L5.25 9.75M7.74997 12.7504L5.25 12.75M5.25 2.25V3.75M12.75 2.25V3.75M4.65 15.75H13.35C14.1901 15.75 14.6102 15.75 14.931 15.5865C15.2132 15.4427 15.4427 15.2132 15.5865 14.931C15.75 14.6102 15.75 14.1901 15.75 13.35V6.15C15.75 5.30992 15.75 4.88988 15.5865 4.56902C15.4427 4.28677 15.2132 4.0573 14.931 3.91349C14.6102 3.75 14.1901 3.75 13.35 3.75H4.65C3.80992 3.75 3.38988 3.75 3.06902 3.91349C2.78677 4.0573 2.5573 4.28677 2.41349 4.56902C2.25 4.88988 2.25 5.30992 2.25 6.15V13.35C2.25 14.1901 2.25 14.6102 2.41349 14.931C2.5573 15.2132 2.78677 15.4427 3.06902 15.5865C3.38988 15.75 3.80992 15.75 4.65 15.75Z" stroke="#89939E" stroke-width="1.2" stroke-linecap="round" stroke-linejoin="round"/>
</svg>
