<svg width="20" height="20" viewBox="0 0 20 20" fill="none" xmlns="http://www.w3.org/2000/svg">
<path d="M3.38741 3.3874C2.87086 3.90395 2.87086 4.74142 3.38741 5.25797L8.12943 9.99997L3.38741 14.7421C2.87086 15.2586 2.87086 16.0961 3.38741 16.6126C3.90395 17.1291 4.74143 17.1291 5.25797 16.6126L9.99997 11.8705L14.7421 16.6126C15.2586 17.1291 16.0961 17.1291 16.6126 16.6126C17.1291 16.0961 17.1291 15.2586 16.6126 14.7421L11.8705 9.99997L16.6126 5.25799C17.1291 4.74145 17.1291 3.90396 16.6126 3.38743C16.096 2.87088 15.2586 2.87088 14.7421 3.38743L9.99997 8.12943L5.25797 3.3874C4.74143 2.87087 3.90395 2.87087 3.38741 3.3874Z" fill="#000460"/>
</svg>
