<svg width="19" height="18" viewBox="0 0 19 18" fill="none" xmlns="http://www.w3.org/2000/svg">
<path fill-rule="evenodd" clip-rule="evenodd" d="M14.1983 2.52011C14.5081 2.22532 14.9223 2.06566 15.3498 2.07626C15.7773 2.08685 16.1831 2.26683 16.4779 2.57661C16.7726 2.88638 16.9323 3.30057 16.9217 3.72806C16.9111 4.15555 16.7311 4.56132 16.4214 4.85611L5.34635 15.4211L2.49235 15.7961L3.66235 12.5241L14.1973 2.52111L14.1983 2.52011ZM17.9234 1.19811C17.2633 0.50534 16.3554 0.102772 15.3988 0.0787743C14.4423 0.0547761 13.5153 0.411309 12.8214 1.07011L2.11035 11.2381C1.99681 11.3459 1.91016 11.4788 1.85735 11.6261L0.0573505 16.6631C-0.000306096 16.8244 -0.0155452 16.9979 0.0130945 17.1668C0.0417343 17.3357 0.113292 17.4944 0.220906 17.6278C0.32852 17.7611 0.46858 17.8645 0.627655 17.9281C0.78673 17.9917 0.959484 18.0134 1.12935 17.9911L5.92935 17.3611C6.1396 17.3337 6.33571 17.2402 6.48935 17.0941L17.8004 6.30411C18.4935 5.64312 18.8958 4.73389 18.9186 3.77637C18.9415 2.81885 18.5842 1.89144 17.9234 1.19811Z" fill="#000460"/>
</svg>
