<svg width="40" height="40" viewBox="0 0 40 40" fill="none" xmlns="http://www.w3.org/2000/svg">
<path d="M12.2998 16.5005H22.8537C25.5301 16.5005 27.6998 18.6701 27.6998 21.3466C27.6998 24.0231 25.5301 26.1927 22.8537 26.1927H16.4998M12.2998 16.5005L15.4498 13.5928M12.2998 16.5005L15.4498 19.4082" stroke="#868E96" stroke-width="2" stroke-linecap="round" stroke-linejoin="round"/>
<path d="M34 20C34 26.5996 34 29.8995 31.9497 31.9497C29.8995 34 26.5996 34 20 34C13.4003 34 10.1005 34 8.05026 31.9497C6 29.8995 6 26.5996 6 20C6 13.4003 6 10.1005 8.05026 8.05026C10.1005 6 13.4003 6 20 6C26.5996 6 29.8995 6 31.9497 8.05026C33.313 9.41349 33.7698 11.3292 33.9229 14.4" stroke="#868E96" stroke-width="2" stroke-linecap="round"/>
</svg>
