<svg width="24" height="24" viewBox="0 0 24 24" fill="none" xmlns="http://www.w3.org/2000/svg">
<g clip-path="url(#clip0_2422_834)">
<circle cx="12" cy="12" r="12" fill="#FF6601"/>
<path fill-rule="evenodd" clip-rule="evenodd" d="M15.75 15.3859C15.75 15.7055 15.47 15.8421 15.125 15.8421H14.5C14.155 15.8421 13.875 15.7055 13.875 15.3859V14.807C13.875 14.1673 13.3156 13.5263 12.625 13.5263H11.375C10.6844 13.5263 10.125 14.1673 10.125 14.807V15.3859C10.125 15.7055 9.84499 15.8421 9.49999 15.8421H8.875C8.53 15.8421 8.24999 15.7055 8.24999 15.3859V10.7179C8.24999 10.6409 8.28312 10.5673 8.34124 10.5129L11.5519 7.53949C11.7962 7.31312 12.1919 7.31312 12.4356 7.53949L15.6588 10.5245C15.7169 10.5789 15.75 10.6525 15.75 10.7289V15.3859ZM17 10.4145C17 10.2611 16.9344 10.1146 16.8181 10.0058L12.8813 6.34107C12.3937 5.88776 11.6019 5.88603 11.1125 6.3376L7.18375 9.96469C7.06625 10.0735 7 10.2206 7 10.3746V15.9649C7 16.6046 7.55937 17 8.24999 17H10.125C10.8156 17 11.375 16.6046 11.375 15.9649V15.3859C11.375 15.0663 11.655 14.807 12 14.807C12.345 14.807 12.625 15.0663 12.625 15.3859V15.9649C12.625 16.6046 13.1843 17 13.875 17H15.75C16.4406 17 17 16.6046 17 15.9649V10.4145Z" fill="#FEFEFE"/>
</g>
<defs>
<clipPath id="clip0_2422_834">
<rect width="24" height="24" fill="white"/>
</clipPath>
</defs>
</svg>
