<svg width="24" height="24" viewBox="0 0 24 24" fill="none" xmlns="http://www.w3.org/2000/svg">
<path d="M8 6.6C6.67452 6.6 5.6 7.67452 5.6 9V15.4C5.6 16.7255 6.67452 17.8 8 17.8H16C17.3255 17.8 18.4 16.7255 18.4 15.4V12.6C18.4 12.1582 18.7582 11.8 19.2 11.8C19.6418 11.8 20 12.1582 20 12.6V15.4C20 17.6091 18.2091 19.4 16 19.4H8C5.79086 19.4 4 17.6091 4 15.4V9C4 6.79086 5.79086 5 8 5H10.8C11.2418 5 11.6 5.35818 11.6 5.8C11.6 6.24182 11.2418 6.6 10.8 6.6H8Z" fill="#89939E"/>
<path fill-rule="evenodd" clip-rule="evenodd" d="M17.474 5.46863C16.8492 4.84379 15.8361 4.84379 15.2113 5.46863L11.744 8.93593L11.2113 12.1564C11.1129 12.7518 11.6291 13.2674 12.2243 13.168L15.4404 12.6315L18.9073 9.16465C19.5321 8.53981 19.5321 7.52675 18.9073 6.90191L17.474 5.46863ZM12.9541 11.4242L13.2386 9.70396L16.3426 6.6L17.7759 8.03328L14.6715 11.1377L12.9541 11.4242Z" fill="#89939E"/>
</svg>
