<svg width="20" height="20" viewBox="0 0 20 20" fill="none" xmlns="http://www.w3.org/2000/svg">
<g clip-path="url(#clip0_2469_843)">
<path d="M10.0003 18.3332C14.6027 18.3332 18.3337 14.6022 18.3337 9.99984C18.3337 5.39746 14.6027 1.6665 10.0003 1.6665C5.39795 1.6665 1.66699 5.39746 1.66699 9.99984C1.66699 11.3329 1.98001 12.5928 2.53654 13.7103C2.68444 14.0072 2.73367 14.3466 2.64793 14.667L2.15158 16.5221C1.93612 17.3273 2.67283 18.064 3.47812 17.8486L5.33315 17.3523C5.6536 17.2665 5.993 17.3157 6.28993 17.4636C7.4073 18.0202 8.66724 18.3332 10.0003 18.3332Z" stroke="black" stroke-width="1.6"/>
<path d="M6.66699 8.75H13.3337" stroke="black" stroke-width="1.6" stroke-linecap="round"/>
<path d="M6.66699 11.6665H11.2503" stroke="black" stroke-width="1.6" stroke-linecap="round"/>
</g>
<defs>
<clipPath id="clip0_2469_843">
<rect width="20" height="20" fill="white"/>
</clipPath>
</defs>
</svg>
