<svg width="24" height="24" viewBox="0 0 24 24" fill="none" xmlns="http://www.w3.org/2000/svg">
<path fill-rule="evenodd" clip-rule="evenodd" d="M18.092 18.3588C18.092 18.8817 17.6411 19.1053 17.0854 19.1053H16.0789C15.5232 19.1053 15.0723 18.8817 15.0723 18.3588V17.4114C15.0723 16.3646 14.1714 15.3158 13.0591 15.3158H11.046C9.93374 15.3158 9.03286 16.3646 9.03286 17.4114V18.3588C9.03286 18.8817 8.58192 19.1053 8.02629 19.1053H7.01972C6.46409 19.1053 6.01314 18.8817 6.01314 18.3588V10.7202C6.01314 10.5942 6.06649 10.4738 6.1601 10.3848L11.3309 5.51916C11.7244 5.14874 12.3616 5.14874 12.7542 5.51916L17.9451 10.4038C18.0387 10.4928 18.092 10.6132 18.092 10.7382V18.3588ZM20.1052 10.2238C20.1052 9.97271 19.9995 9.73303 19.8123 9.55493L13.4719 3.55811C12.6867 2.81633 11.4114 2.8135 10.6232 3.55244L4.29593 9.48768C4.1067 9.66578 4 9.90642 4 10.1584V19.3062C4 20.353 4.90088 21 6.01314 21H9.03286C10.1451 21 11.046 20.353 11.046 19.3062V18.3588C11.046 17.8358 11.4969 17.4114 12.0526 17.4114C12.6082 17.4114 13.0591 17.8358 13.0591 18.3588V19.3062C13.0591 20.353 13.96 21 15.0723 21H18.092C19.2043 21 20.1052 20.353 20.1052 19.3062V10.2238Z" fill="#89939E"/>
</svg>
