<svg width="24" height="24" viewBox="0 0 24 24" fill="none" xmlns="http://www.w3.org/2000/svg">
<mask id="mask0_1696_803" style="mask-type:luminance" maskUnits="userSpaceOnUse" x="3" y="3" width="18" height="18">
<path d="M21 3H3V21H21V3Z" fill="white"/>
</mask>
<g mask="url(#mask0_1696_803)">
<path d="M13.464 17.5562C13.24 17.5562 13.0375 17.4022 12.985 17.1747L11.7754 11.9368C11.7143 11.6721 11.8794 11.4079 12.1442 11.3467C12.409 11.2855 12.6731 11.4506 12.7343 11.7154L13.9438 16.9533C14.005 17.2181 13.8399 17.4823 13.5751 17.5434C13.5378 17.552 13.5006 17.5562 13.464 17.5562Z" fill="#34C75C"/>
<path d="M5.82627 16.7915C5.68575 16.7915 5.54622 16.7317 5.4489 16.6155C5.27439 16.4073 5.3017 16.097 5.50997 15.9224L6.53878 15.0603C6.74705 14.8856 7.05741 14.9131 7.23196 15.1213C7.40647 15.3296 7.37916 15.6399 7.17089 15.8144L6.14208 16.6766C6.04986 16.7538 5.93772 16.7915 5.82627 16.7915Z" fill="#34C75C"/>
<path d="M8.17872 14.7428C8.04133 14.7428 7.90475 14.6857 7.80751 14.5739C7.62905 14.369 7.6505 14.0583 7.85542 13.8798L15.689 7.05748C15.8939 6.87906 16.2047 6.90051 16.3832 7.1054C16.5616 7.31032 16.5402 7.62107 16.3353 7.79956L8.50163 14.6218C8.40843 14.703 8.2933 14.7428 8.17872 14.7428Z" fill="#34C75C"/>
<path d="M12.9234 12.9872C12.7867 12.9872 12.6506 12.9305 12.5534 12.8197L6.27456 5.66515C6.09533 5.46096 6.11558 5.15004 6.31984 4.97085C6.52406 4.79162 6.83495 4.81187 7.01418 5.01613L13.293 12.1707C13.4723 12.3749 13.452 12.6858 13.2477 12.865C13.1544 12.9469 13.0386 12.9872 12.9234 12.9872Z" fill="#34C75C"/>
<path d="M20.1019 11.9684H16.9676C16.6958 11.9684 16.4756 11.7481 16.4756 11.4764C16.4756 11.2047 16.6959 10.9844 16.9676 10.9844H20.1019C20.3736 10.9844 20.5939 11.2047 20.5939 11.4764C20.5939 11.7481 20.3736 11.9684 20.1019 11.9684Z" fill="#34C75C"/>
<path d="M11.9815 14.6944C13.7592 14.6944 15.2003 13.2533 15.2003 11.4756C15.2003 9.69794 13.7592 8.25684 11.9815 8.25684C10.2038 8.25684 8.7627 9.69794 8.7627 11.4756C8.7627 13.2533 10.2038 14.6944 11.9815 14.6944Z" fill="#34C75C"/>
<path d="M11.9813 15.1872C9.93516 15.1872 8.27051 13.5225 8.27051 11.4764C8.27051 9.43028 9.93516 7.76562 11.9813 7.76562C14.0274 7.76562 15.6921 9.43028 15.6921 11.4764C15.6921 13.5225 14.0274 15.1872 11.9813 15.1872ZM11.9813 8.74965C10.4778 8.74965 9.25453 9.97281 9.25453 11.4764C9.25453 12.98 10.4778 14.2032 11.9813 14.2032C13.4848 14.2032 14.708 12.98 14.708 11.4764C14.708 9.97281 13.4848 8.74965 11.9813 8.74965Z" fill="#34C75C"/>
<path d="M6.64493 6.67755C7.3835 6.67755 7.98223 6.07881 7.98223 5.34024C7.98223 4.60166 7.3835 4.00293 6.64493 4.00293C5.90635 4.00293 5.30762 4.60166 5.30762 5.34024C5.30762 6.07881 5.90635 6.67755 6.64493 6.67755Z" fill="#34C75C"/>
<path d="M6.64493 7.16977C5.63612 7.16977 4.81543 6.34908 4.81543 5.34027C4.81543 4.33146 5.63612 3.51074 6.64493 3.51074C7.65373 3.51074 8.47446 4.3315 8.47446 5.34027C8.47446 6.34905 7.6537 7.16977 6.64493 7.16977ZM6.64493 4.4948C6.17872 4.4948 5.79949 4.8741 5.79949 5.34031C5.79949 5.80652 6.17875 6.18575 6.64493 6.18575C7.11113 6.18575 7.49043 5.80648 7.49043 5.34031C7.49043 4.87414 7.1111 4.4948 6.64493 4.4948Z" fill="#34C75C"/>
<path d="M13.7891 20.4893C12.7127 20.4893 11.8369 19.6136 11.8369 18.5372C11.8369 17.4607 12.7127 16.585 13.7891 16.585C14.8656 16.585 15.7413 17.4607 15.7413 18.5372C15.7413 19.6136 14.8656 20.4893 13.7891 20.4893ZM13.7891 17.569C13.2553 17.569 12.8209 18.0033 12.8209 18.5372C12.8209 19.071 13.2553 19.5053 13.7891 19.5053C14.323 19.5053 14.7573 19.071 14.7573 18.5372C14.7573 18.0033 14.323 17.569 13.7891 17.569Z" fill="#34C75C"/>
<path d="M16.7509 8.18252C15.9379 8.18252 15.2764 7.52105 15.2764 6.70796C15.2764 5.89486 15.9378 5.2334 16.7509 5.2334C17.564 5.2334 18.2255 5.89486 18.2255 6.70796C18.2255 7.52105 17.564 8.18252 16.7509 8.18252ZM16.7509 6.21753C16.4805 6.21753 16.2604 6.43757 16.2604 6.70803C16.2604 6.97848 16.4805 7.19853 16.7509 7.19853C17.0214 7.19853 17.2414 6.97848 17.2414 6.70803C17.2414 6.43757 17.0214 6.21753 16.7509 6.21753Z" fill="#34C75C"/>
<path d="M19.2895 12.6941C19.9622 12.6941 20.5076 12.1488 20.5076 11.476C20.5076 10.8032 19.9622 10.2578 19.2895 10.2578C18.6167 10.2578 18.0713 10.8032 18.0713 11.476C18.0713 12.1488 18.6167 12.6941 19.2895 12.6941Z" fill="#34C75C"/>
<path d="M19.2903 13.186C18.3473 13.186 17.5801 12.4188 17.5801 11.4758C17.5801 10.5328 18.3473 9.76562 19.2903 9.76562C20.2333 9.76562 21.0004 10.5328 21.0004 11.4758C21.0004 12.4188 20.2333 13.186 19.2903 13.186ZM19.2903 10.7497C18.8899 10.7497 18.5641 11.0754 18.5641 11.4758C18.5641 11.8762 18.8899 12.2019 19.2903 12.2019C19.6906 12.2019 20.0164 11.8762 20.0164 11.4758C20.0164 11.0754 19.6907 10.7497 19.2903 10.7497Z" fill="#34C75C"/>
<path d="M4.8295 18.5809C5.56807 18.5809 6.1668 17.9821 6.1668 17.2436C6.1668 16.505 5.56807 15.9062 4.8295 15.9062C4.09092 15.9062 3.49219 16.505 3.49219 17.2436C3.49219 17.9821 4.09092 18.5809 4.8295 18.5809Z" fill="#34C75C"/>
<path d="M4.82953 19.0731C3.82076 19.0731 3 18.2523 3 17.2436C3 16.2349 3.82076 15.4141 4.82953 15.4141C5.8383 15.4141 6.65906 16.2348 6.65906 17.2436C6.65906 18.2524 5.83834 19.0731 4.82953 19.0731ZM4.82953 16.3981C4.36329 16.3981 3.98402 16.7774 3.98402 17.2436C3.98402 17.7098 4.36329 18.0891 4.82953 18.0891C5.29577 18.0891 5.67504 17.7098 5.67504 17.2436C5.67504 16.7774 5.29574 16.3981 4.82953 16.3981Z" fill="#34C75C"/>
</g>
</svg>
