<svg width="24" height="24" viewBox="0 0 24 24" fill="none" xmlns="http://www.w3.org/2000/svg">
<mask id="mask0_1696_802" style="mask-type:luminance" maskUnits="userSpaceOnUse" x="3" y="3" width="18" height="18">
<path d="M21 3H3V21H21V3Z" fill="white"/>
</mask>
<g mask="url(#mask0_1696_802)">
<path d="M12 17.9811C11.8354 17.9806 11.6743 17.9338 11.535 17.8461L7.5 15.4573C7.38665 15.3919 7.29239 15.2979 7.22661 15.1848C7.16082 15.0716 7.12579 14.9432 7.125 14.8123V9.18731C7.12579 9.05643 7.16082 8.92803 7.22661 8.81488C7.29239 8.70172 7.38665 8.60776 7.5 8.54232L11.565 6.14232C11.6986 6.06198 11.8516 6.01953 12.0075 6.01953C12.1634 6.01953 12.3164 6.06198 12.45 6.14232L16.5 8.54232C16.6134 8.60776 16.7076 8.70172 16.7734 8.81488C16.8392 8.92803 16.8742 9.05643 16.875 9.18731V14.7486C16.8754 14.8949 16.8384 15.0388 16.7675 15.1668C16.6966 15.2948 16.5942 15.4025 16.47 15.4798L12.4425 17.8573C12.3099 17.94 12.1563 17.983 12 17.9811ZM8.625 14.3848L12 16.3761L15.375 14.3848V9.61481L12 7.62357L8.625 9.61481V14.3848Z" fill="#FFD863"/>
<path d="M16.1252 9.93737C15.9615 9.9357 15.8028 9.88053 15.6735 9.78027C15.5441 9.68002 15.451 9.54018 15.4085 9.38211C15.366 9.22403 15.3764 9.0564 15.4381 8.90478C15.4998 8.75316 15.6094 8.62588 15.7502 8.54237L19.8752 6.10487C19.96 6.04315 20.0569 5.99992 20.1595 5.97799C20.2622 5.95606 20.3682 5.9559 20.4709 5.97754C20.5736 5.99918 20.6706 6.04213 20.7557 6.10361C20.8407 6.16509 20.9119 6.24374 20.9647 6.33446C21.0174 6.42518 21.0505 6.52597 21.0619 6.63029C21.0732 6.73462 21.0626 6.84017 21.0306 6.94011C20.9986 7.04006 20.9459 7.13217 20.8761 7.21051C20.8063 7.28884 20.7208 7.35165 20.6252 7.39487L16.5002 9.83237C16.3866 9.89978 16.2572 9.936 16.1252 9.93737Z" fill="#FFD863"/>
<path d="M3.75016 17.9999C3.58648 17.9982 3.42784 17.943 3.29845 17.8428C3.16906 17.7425 3.07602 17.6027 3.03353 17.4446C2.99103 17.2865 3.00142 17.1189 3.0631 16.9673C3.12479 16.8157 3.23438 16.6884 3.37516 16.6049L7.50016 14.1674C7.58503 14.1056 7.68191 14.0624 7.78453 14.0405C7.88716 14.0186 7.99324 14.0184 8.09593 14.04C8.19862 14.0617 8.29562 14.1046 8.38067 14.1661C8.46572 14.2276 8.53691 14.3062 8.58966 14.397C8.64241 14.4877 8.67553 14.5885 8.68688 14.6928C8.69823 14.7971 8.68756 14.9027 8.65556 15.0026C8.62357 15.1026 8.57095 15.1947 8.50112 15.273C8.43128 15.3513 8.34579 15.4141 8.25016 15.4574L4.12516 17.8949C4.01158 17.9623 3.88222 17.9985 3.75016 17.9999Z" fill="#FFD863"/>
<path d="M7.87529 9.93763C7.74322 9.93626 7.61386 9.90004 7.50029 9.83263L3.37529 7.39513C3.22513 7.28593 3.12081 7.12491 3.08253 6.94323C3.04424 6.76155 3.07471 6.57212 3.16803 6.41161C3.26135 6.2511 3.41089 6.1309 3.58772 6.07429C3.76455 6.01768 3.95609 6.02867 4.12529 6.10513L8.25029 8.54263C8.39106 8.62615 8.50066 8.75342 8.56234 8.90504C8.62402 9.05666 8.63441 9.2243 8.59192 9.38237C8.54943 9.54045 8.45638 9.68028 8.32699 9.78053C8.1976 9.88079 8.03896 9.93596 7.87529 9.93763Z" fill="#FFD863"/>
<path d="M11.4601 15.0523C11.2964 15.0506 11.1378 14.9954 11.0084 14.8952C10.879 14.7949 10.786 14.6551 10.7435 14.497C10.701 14.3389 10.7114 14.1713 10.7731 14.0197C10.8348 13.868 10.9443 13.7408 11.0851 13.6573L13.6201 12.1573C13.7903 12.0756 13.9851 12.0612 14.1655 12.1168C14.3459 12.1724 14.4986 12.294 14.5933 12.4573C14.688 12.6207 14.7176 12.8137 14.6762 12.9979C14.6349 13.1821 14.5255 13.3439 14.3701 13.451L11.8351 14.951C11.7212 15.0171 11.5918 15.052 11.4601 15.0523Z" fill="#FFD863"/>
</g>
</svg>
