<svg width="24" height="24" viewBox="0 0 24 24" fill="none" xmlns="http://www.w3.org/2000/svg">
<path d="M7.625 14.375V9.125H10.625" stroke="#0008BD" stroke-width="1.2" stroke-linecap="round" stroke-linejoin="round"/>
<path d="M7.625 11.75H10.4375" stroke="#0008BD" stroke-width="1.2" stroke-linecap="round" stroke-linejoin="round"/>
<path d="M7.625 14.375H10.4375" stroke="#0008BD" stroke-width="1.2" stroke-linecap="round" stroke-linejoin="round"/>
<path d="M12.5 14.375V9.875" stroke="#0008BD" stroke-width="1.2" stroke-linecap="round" stroke-linejoin="round"/>
<path d="M12.5 14.375V11.9375C12.5 11.0055 13.2555 10.25 14.1875 10.25C15.1195 10.25 15.875 11.0055 15.875 11.9375V14.375" stroke="#0008BD" stroke-width="1.2" stroke-linecap="round" stroke-linejoin="round"/>
<path d="M17.375 5H6.125C5.50368 5 5 5.50368 5 6.125V17.375C5 17.9963 5.50368 18.5 6.125 18.5H17.375C17.9963 18.5 18.5 17.9963 18.5 17.375V6.125C18.5 5.50368 17.9963 5 17.375 5Z" stroke="#0008BD" stroke-width="1.2" stroke-linecap="round" stroke-linejoin="round"/>
</svg>
