<svg width="24" height="24" viewBox="0 0 24 24" fill="none" xmlns="http://www.w3.org/2000/svg">
<path d="M12 13.3032C11.7551 13.2681 11.5046 13.25 11.25 13.25C8.35051 13.25 6 15.6005 6 18.5H13.5M16.4977 16.25C17.2477 15.5 17.9977 15.2034 17.9977 14.375C17.9977 13.5466 17.3262 12.875 16.4977 12.875C15.7988 12.875 15.2115 13.353 15.045 14M16.4977 18.5H16.5052M14.25 8C14.25 9.65686 12.9068 11 11.25 11C9.59314 11 8.25 9.65686 8.25 8C8.25 6.34314 9.59314 5 11.25 5C12.9068 5 14.25 6.34314 14.25 8Z" stroke="#FF6601" stroke-linecap="round" stroke-linejoin="round"/>
</svg>
