<svg width="24" height="24" viewBox="0 0 24 24" fill="none" xmlns="http://www.w3.org/2000/svg">
<path d="M13.5 14.2451C15.9853 14.2451 18 12.2304 18 9.74512C18 7.25984 15.9853 5.24512 13.5 5.24512C11.0147 5.24512 9 7.25984 9 9.74512C9 12.2304 11.0147 14.2451 13.5 14.2451Z" stroke="#258BFF" stroke-width="1.5" stroke-linecap="round" stroke-linejoin="round"/>
<path d="M18.3209 15.4906C17.5664 16.1237 16.6946 16.602 15.7553 16.8982C14.816 17.1943 13.8275 17.3026 12.8463 17.2168C11.8652 17.1309 10.9105 16.8527 10.0369 16.3979C9.16326 15.9431 8.38776 15.3207 7.75467 14.5662C7.12158 13.8117 6.64329 12.9399 6.34712 12.0006C6.05095 11.0613 5.9427 10.0728 6.02854 9.09166C6.11438 8.11049 6.39264 7.15584 6.84742 6.28221C7.3022 5.40859 7.92461 4.63309 8.67909 4" stroke="#258BFF" stroke-width="1.5" stroke-linecap="round" stroke-linejoin="round"/>
<path d="M13 17.2451V20.2451M13 20.2451H10.5M13 20.2451C13 20.2451 13.8284 20.2451 15 20.2451" stroke="#258BFF" stroke-width="1.5" stroke-linecap="round" stroke-linejoin="round"/>
</svg>
