<svg width="24" height="24" viewBox="0 0 24 24" fill="none" xmlns="http://www.w3.org/2000/svg">
<path d="M11.7143 15.0205C10.4969 15.0205 9.51021 16.0071 9.51021 17.2245C9.51021 18.4419 10.4969 19.4286 11.7143 19.4286C12.9317 19.4286 13.9184 18.4419 13.9184 17.2245C13.9184 16.0071 12.9317 15.0205 11.7143 15.0205ZM11.7143 8.40817C12.9317 8.40817 13.9184 7.4215 13.9184 6.20409C13.9184 4.98667 12.9317 4 11.7143 4C10.4969 4 9.51021 4.98667 9.51021 6.20409C9.51021 7.4215 10.4969 8.40817 11.7143 8.40817ZM18.3266 10.0612H5.10204C4.49351 10.0612 4 10.5547 4 11.1633V12.2653C4 12.8739 4.49351 13.3674 5.10204 13.3674H18.3266C18.9351 13.3674 19.4286 12.8739 19.4286 12.2653V11.1633C19.4286 10.5547 18.9351 10.0612 18.3266 10.0612Z" fill="#EE2400"/>
</svg>
