<svg width="24" height="24" viewBox="0 0 24 24" fill="none" xmlns="http://www.w3.org/2000/svg">
<path d="M18.4249 13.5819C18.3071 13.3745 18.0417 13.3042 17.836 13.4237C17.6286 13.5414 17.5583 13.8069 17.6761 14.0125C18.8468 16.0498 19.1421 17.7497 18.446 18.4457C17.1153 19.7782 12.9687 17.4877 10.0788 14.5979C9.34934 13.8684 8.69367 13.1091 8.12238 12.3497C8.70949 11.5569 9.3757 10.7817 10.0788 10.0786C12.9669 7.1905 17.1136 4.90183 18.446 6.2325C18.9892 6.77566 18.9329 7.94812 18.2895 9.44929C17.5847 11.0946 16.2733 12.9245 14.5981 14.5997C14.2062 14.9916 13.8001 15.3696 13.3906 15.7211C13.2095 15.8758 13.1902 16.15 13.3448 16.3293C13.5013 16.5104 13.7738 16.5297 13.9531 16.375C14.3784 16.0094 14.8003 15.6157 15.2081 15.2096C16.9589 13.4588 18.3352 11.5341 19.0823 9.79031C19.8839 7.92175 19.8733 6.44167 19.0559 5.62429C17.4458 4.01414 13.2341 5.70515 9.46887 9.47214C8.7675 10.1735 8.1382 10.8907 7.58801 11.6026C7.09406 10.8696 6.68449 10.1436 6.38742 9.45105C5.74406 7.95164 5.68781 6.77917 6.23098 6.23425C6.92707 5.53816 8.62336 5.83171 10.6607 7.00066C10.8663 7.11843 11.1318 7.04812 11.2495 6.8407C11.3673 6.63328 11.297 6.3696 11.0896 6.25183C8.62863 4.84031 6.63527 4.61003 5.62102 5.62429C4.80188 6.44343 4.79309 7.92175 5.59465 9.79031C5.94621 10.613 6.44191 11.4743 7.0466 12.3391C5.06203 15.1832 4.41516 17.8498 5.62102 19.0557C6.03938 19.4741 6.62297 19.6797 7.33664 19.6797C8.36848 19.6797 9.67277 19.2473 11.1423 18.3965C11.348 18.277 11.4183 18.0133 11.2988 17.8059C11.1792 17.6002 10.9156 17.5299 10.7081 17.6495C8.64973 18.8448 6.9341 19.1489 6.23098 18.4457C5.32395 17.5387 6.09914 15.3239 7.59856 13.0897C8.15402 13.8086 8.78156 14.5223 9.46711 15.2079C11.2179 16.9586 13.1427 18.3332 14.8882 19.0821C15.811 19.4776 16.6407 19.6762 17.3421 19.6762C18.0593 19.6762 18.6411 19.4688 19.0559 19.0557C20.0702 18.0414 19.8399 16.0463 18.4249 13.5819ZM12.3394 10.8995C11.5448 10.8995 10.8997 11.5446 10.8997 12.3391C10.8997 13.1337 11.5448 13.7788 12.3394 13.7788C13.1339 13.7788 13.779 13.1337 13.779 12.3391C13.7773 11.5446 13.1339 10.8995 12.3394 10.8995Z" fill="#940FC0"/>
</svg>
