<svg width="20" height="20" viewBox="0 0 20 20" fill="none" xmlns="http://www.w3.org/2000/svg">
<path d="M5.82904 5.8388C5.5036 6.16424 5.5036 6.69188 5.82904 7.01732L8.81666 10.0049L5.82904 12.9926C5.5036 13.318 5.5036 13.8457 5.82904 14.1711C6.15448 14.4965 6.68212 14.4965 7.00755 14.1711L9.99516 11.1834L12.9828 14.1711C13.3082 14.4965 13.8359 14.4965 14.1613 14.1711C14.4867 13.8457 14.4867 13.318 14.1613 12.9926L11.1737 10.0049L14.1613 7.01733C14.4867 6.69189 14.4867 6.16425 14.1613 5.83882C13.8358 5.51338 13.3082 5.51338 12.9828 5.83882L9.99516 8.82642L7.00755 5.8388C6.68212 5.51337 6.15448 5.51337 5.82904 5.8388Z" fill="#000000"/>
</svg>
