<svg width="60" height="60" viewBox="0 0 60 60" fill="none" xmlns="http://www.w3.org/2000/svg">
<rect width="60" height="60" rx="13.5" fill="white"/>
<path d="M28.9074 10.8744C29.1505 9.70855 30.8495 9.70855 31.0926 10.8744C31.6294 13.4492 33.6818 15.4614 36.3081 15.9877C37.4973 16.226 37.4973 17.8917 36.3081 18.13C33.6818 18.6563 31.6294 20.6685 31.0926 23.2433C30.8495 24.4091 29.1505 24.4091 28.9074 23.2433C28.3706 20.6685 26.3182 18.6563 23.6918 18.13C22.5027 17.8917 22.5027 16.226 23.6918 15.9877C26.3182 15.4614 28.3706 13.4492 28.9074 10.8744Z" fill="#000460"/>
<path d="M28.9074 36.7567C29.1505 35.5909 30.8495 35.5909 31.0926 36.7567C31.6294 39.3315 33.6818 41.3437 36.3081 41.87C37.4973 42.1083 37.4973 43.774 36.3081 44.0123C33.6818 44.5386 31.6294 46.5508 31.0926 49.1256C30.8495 50.2915 29.1505 50.2915 28.9074 49.1256C28.3706 46.5508 26.3182 44.5386 23.6918 44.0123C22.5027 43.774 22.5027 42.1083 23.6918 41.87C26.3182 41.3437 28.3706 39.3315 28.9074 36.7567Z" fill="#FF6601"/>
<path d="M34.8 30.5882C34.8 29.9385 35.3456 29.403 35.9849 29.5745C37.455 29.9689 38.8235 31.0207 39.8912 32.0675C41.2414 33.3913 42 35.1867 42 37.0588C42 38.9309 41.2414 40.7264 39.8912 42.0502C38.823 43.0974 37.4536 43.7817 35.9827 44.0218C35.3355 44.1275 34.8 43.5962 34.8 42.9529C34.8 42.3097 35.3398 41.8024 35.9761 41.6455C36.8149 41.4388 37.5892 41.0127 38.2111 40.403C39.1158 39.5161 39.624 38.3131 39.624 37.0588C39.624 35.8045 39.1158 34.6016 38.2111 33.7146C37.5851 33.1009 36.8049 32.403 35.9597 32.0312C35.355 31.7651 34.8 31.238 34.8 30.5882Z" fill="#FF6601"/>
<path d="M25.2 29.4118C25.2 30.0615 24.6544 30.597 24.0151 30.4255C22.545 30.0311 21.1765 28.9793 20.1088 27.9325C18.7586 26.6087 18 24.8133 18 22.9412C18 21.0691 18.7586 19.2736 20.1088 17.9498C21.177 16.9026 22.5464 16.2183 24.0173 15.9782C24.6645 15.8725 25.2 16.4038 25.2 17.0471C25.2 17.6903 24.6602 18.1976 24.0239 18.3545C23.1851 18.5612 22.4108 18.9873 21.7889 19.597C20.8842 20.4839 20.376 21.6869 20.376 22.9412C20.376 24.1955 20.8842 25.3984 21.7889 26.2854C22.4149 26.8991 23.1951 27.597 24.0403 27.9688C24.645 28.2349 25.2 28.762 25.2 29.4118Z" fill="#000460"/>
<path d="M31.2 30C31.2 30.6497 30.6627 31.1765 30 31.1765C29.3373 31.1765 28.8 30.6497 28.8 30C28.8 29.3503 29.3373 28.8235 30 28.8235C30.6627 28.8235 31.2 29.3503 31.2 30Z" fill="#000460"/>
</svg>
