<svg width="20" height="20" viewBox="0 0 20 20" fill="none" xmlns="http://www.w3.org/2000/svg">
<path d="M9.99967 11.6668C10.4417 11.6668 10.8656 11.4912 11.1782 11.1787C11.4907 10.8661 11.6663 10.4422 11.6663 10.0002C11.6663 9.55814 11.4907 9.13421 11.1782 8.82165C10.8656 8.50909 10.4417 8.3335 9.99967 8.3335C9.55765 8.3335 9.13372 8.50909 8.82116 8.82165C8.5086 9.13421 8.33301 9.55814 8.33301 10.0002C8.33301 10.4422 8.5086 10.8661 8.82116 11.1787C9.13372 11.4912 9.55765 11.6668 9.99967 11.6668ZM4.99967 11.6668C5.4417 11.6668 5.86562 11.4912 6.17819 11.1787C6.49075 10.8661 6.66634 10.4422 6.66634 10.0002C6.66634 9.55814 6.49075 9.13421 6.17819 8.82165C5.86562 8.50909 5.4417 8.3335 4.99967 8.3335C4.55765 8.3335 4.13372 8.50909 3.82116 8.82165C3.5086 9.13421 3.33301 9.55814 3.33301 10.0002C3.33301 10.4422 3.5086 10.8661 3.82116 11.1787C4.13372 11.4912 4.55765 11.6668 4.99967 11.6668ZM14.9997 11.6668C15.4417 11.6668 15.8656 11.4912 16.1782 11.1787C16.4907 10.8661 16.6663 10.4422 16.6663 10.0002C16.6663 9.55814 16.4907 9.13421 16.1782 8.82165C15.8656 8.50909 15.4417 8.3335 14.9997 8.3335C14.5576 8.3335 14.1337 8.50909 13.8212 8.82165C13.5086 9.13421 13.333 9.55814 13.333 10.0002C13.333 10.4422 13.5086 10.8661 13.8212 11.1787C14.1337 11.4912 14.5576 11.6668 14.9997 11.6668Z" fill="black"/>
</svg>
