<svg width="800" height="800" viewBox="0 0 800 800" fill="none" xmlns="http://www.w3.org/2000/svg">
<path d="M422.536 665.296C431.693 667.426 432.533 679.423 423.613 682.397L370.946 699.73C238.613 742.396 168.946 706.73 125.946 574.396L83.2793 442.73C40.6126 310.396 75.9459 240.396 208.279 197.729L225.746 191.945C239.175 187.498 252.243 200.966 248.43 214.589C246.54 221.341 244.722 228.388 242.946 235.729L210.279 375.397C173.613 532.397 227.279 619.063 384.28 656.396L422.536 665.296Z" fill="#89939E"/>
<path d="M572.34 106.951L516.674 93.9511C405.34 67.6178 339.007 89.2844 300.006 169.951C290.006 190.284 282.006 214.951 275.34 243.284L242.673 382.95C210.006 522.283 253.006 590.95 392.007 623.95L448.007 637.283C467.34 641.95 485.34 644.95 502.007 646.283C606.007 656.283 661.34 607.616 689.34 487.283L722.007 347.95C754.674 208.618 712.007 139.618 572.34 106.951ZM509.674 444.283C506.674 455.616 496.674 462.95 485.34 462.95C483.34 462.95 481.34 462.616 479.007 462.283L382.007 437.616C368.674 434.283 360.674 420.616 364.007 407.283C367.34 393.95 381.007 385.95 394.34 389.283L491.34 413.95C505.007 417.283 513.007 430.95 509.674 444.283ZM607.34 331.618C604.34 342.95 594.34 350.283 583.007 350.283C581.007 350.283 579.007 349.95 576.674 349.616L415.007 308.618C401.674 305.284 393.674 291.618 397.007 278.284C400.34 264.951 414.007 256.951 427.34 260.284L589.007 301.284C602.674 304.284 610.674 317.951 607.34 331.618Z" fill="#89939E"/>
</svg>
