<svg width="20" height="20" viewBox="0 0 20 20" fill="none" xmlns="http://www.w3.org/2000/svg">
<g clip-path="url(#clip0_2810_852)">
<path fill-rule="evenodd" clip-rule="evenodd" d="M9.99999 20C8.02218 20 6.08876 19.4135 4.44427 18.3147C2.79978 17.2159 1.51808 15.6541 0.761204 13.8268C0.00432814 11.9996 -0.193699 9.98891 0.192153 8.0491C0.578005 6.10929 1.53039 4.32746 2.92892 2.92894C4.32744 1.53041 6.1093 0.578004 8.04911 0.192152C9.98892 -0.193701 11.9996 0.00433286 13.8268 0.761209C15.6541 1.51809 17.2159 2.79981 18.3147 4.44431C19.4135 6.0888 20 8.02219 20 10C20 12.6522 18.9464 15.1957 17.0711 17.0711C15.1957 18.9464 12.6522 20 9.99999 20ZM9.99999 1.66667C8.35182 1.66667 6.74063 2.15541 5.37022 3.07109C3.99981 3.98677 2.93175 5.28826 2.30102 6.81098C1.67029 8.33369 1.50523 10.0093 1.82678 11.6258C2.14832 13.2423 2.94202 14.7271 4.10746 15.8926C5.27289 17.058 6.75771 17.8517 8.37422 18.1732C9.99073 18.4948 11.6663 18.3297 13.189 17.699C14.7117 17.0683 16.0132 16.0002 16.9289 14.6298C17.8446 13.2593 18.3333 11.6482 18.3333 10C18.3333 7.78987 17.4553 5.67025 15.8925 4.10745C14.3297 2.54465 12.2101 1.66667 9.99999 1.66667ZM13.9217 13.9217C13.8481 13.9953 13.7607 14.0537 13.6645 14.0935C13.5684 14.1333 13.4653 14.1538 13.3612 14.1538C13.2572 14.1538 13.1541 14.1333 13.058 14.0935C12.9618 14.0537 12.8744 13.9953 12.8008 13.9217L9.98748 11.1083L7.17417 13.9217C7.10156 13.9987 7.01422 14.0603 6.91736 14.1029C6.8205 14.1455 6.71607 14.1683 6.61025 14.1698C6.50444 14.1713 6.39942 14.1516 6.30137 14.1118C6.20331 14.072 6.11422 14.0129 6.03942 13.938C5.96462 13.8632 5.90562 13.7741 5.86588 13.676C5.82614 13.5779 5.80649 13.4729 5.8081 13.3671C5.80971 13.2612 5.83254 13.1568 5.87524 13.06C5.91793 12.9632 5.97963 12.8759 6.05667 12.8033L8.86998 9.99L6.05667 7.17667C5.97963 7.10412 5.91793 7.01684 5.87524 6.92001C5.83254 6.82318 5.80971 6.71877 5.8081 6.61295C5.80649 6.50714 5.82614 6.40208 5.86588 6.304C5.90562 6.20592 5.96462 6.11682 6.03942 6.04196C6.11422 5.9671 6.20331 5.90801 6.30137 5.86821C6.39942 5.8284 6.50444 5.80868 6.61025 5.8102C6.71607 5.81173 6.8205 5.83448 6.91736 5.8771C7.01422 5.91972 7.10156 5.98135 7.17417 6.05834L9.98748 8.87168L12.8008 6.05834C12.874 5.98351 12.9612 5.92394 13.0575 5.88308C13.1538 5.84221 13.2572 5.82086 13.3619 5.82025C13.4665 5.81965 13.5702 5.83981 13.6669 5.87957C13.7637 5.91933 13.8516 5.9779 13.9256 6.05188C13.9996 6.12585 14.0582 6.21377 14.0979 6.31054C14.1377 6.40731 14.1579 6.51101 14.1572 6.61563C14.1566 6.72024 14.1353 6.8237 14.0944 6.92001C14.0536 7.01631 13.994 7.10355 13.9192 7.17667L11.1058 9.99L13.9192 12.8033C14.0676 12.9514 14.1512 13.1523 14.1517 13.362C14.1521 13.5716 14.0694 13.7729 13.9217 13.9217Z" fill="black"/>
</g>
<defs>
<clipPath id="clip0_2810_852">
<rect width="20" height="20" fill="white"/>
</clipPath>
</defs>
</svg>
